<?xml version="1.0" encoding="utf-8"?>
<!-- Generator: Adobe Illustrator 19.0.0, SVG Export Plug-In . SVG Version: 6.00 Build 0)  -->
<!DOCTYPE svg PUBLIC "-//W3C//DTD SVG 1.1//EN" "http://www.w3.org/Graphics/SVG/1.1/DTD/svg11.dtd">
<svg version="1.1"
	 id="svg2816" xmlns:dc="http://purl.org/dc/elements/1.1/" xmlns:rdf="http://www.w3.org/1999/02/22-rdf-syntax-ns#" xmlns:svg="http://www.w3.org/2000/svg" xmlns:cc="http://creativecommons.org/ns#" xmlns:inkscape="http://www.inkscape.org/namespaces/inkscape" xmlns:sodipodi="http://sodipodi.sourceforge.net/DTD/sodipodi-0.dtd" sodipodi:docname="Constraint_HorizontalDistance.svg" inkscape:version="0.47 r22583"
	 xmlns="http://www.w3.org/2000/svg" xmlns:xlink="http://www.w3.org/1999/xlink" x="0px" y="0px" viewBox="-447 249 64 64"
	 style="enable-background:new -447 249 64 64;" xml:space="preserve">
<style type="text/css">
	.st0{fill:#005FFF;stroke:#005FFF;stroke-miterlimit:10;}
	.st1{stroke:#000000;stroke-miterlimit:10;}
	.st2{fill:#005FFF;}
</style>
<defs>
	
	
		<inkscape:perspective  id="perspective2824" inkscape:vp_x="0 : 32 : 1" inkscape:vp_z="64 : 32 : 1" sodipodi:type="inkscape:persp3d" inkscape:vp_y="0 : 1000 : 0" inkscape:persp3d-origin="32 : 21.333333 : 1">
		</inkscape:perspective>
	
		<inkscape:perspective  id="perspective3618" inkscape:vp_x="0 : 0.5 : 1" inkscape:vp_z="1 : 0.5 : 1" sodipodi:type="inkscape:persp3d" inkscape:vp_y="0 : 1000 : 0" inkscape:persp3d-origin="0.5 : 0.33333333 : 1">
		</inkscape:perspective>
	
		<inkscape:perspective  id="perspective3677" inkscape:vp_x="0 : 0.5 : 1" inkscape:vp_z="1 : 0.5 : 1" sodipodi:type="inkscape:persp3d" inkscape:vp_y="0 : 1000 : 0" inkscape:persp3d-origin="0.5 : 0.33333333 : 1">
		</inkscape:perspective>
	
		<inkscape:perspective  id="perspective3717" inkscape:vp_x="0 : 0.5 : 1" inkscape:vp_z="1 : 0.5 : 1" sodipodi:type="inkscape:persp3d" inkscape:vp_y="0 : 1000 : 0" inkscape:persp3d-origin="0.5 : 0.33333333 : 1">
		</inkscape:perspective>
	
		<inkscape:perspective  id="perspective4410" inkscape:vp_x="0 : 0.5 : 1" inkscape:vp_z="1 : 0.5 : 1" sodipodi:type="inkscape:persp3d" inkscape:vp_y="0 : 1000 : 0" inkscape:persp3d-origin="0.5 : 0.33333333 : 1">
		</inkscape:perspective>
	
		<inkscape:perspective  id="perspective4944" inkscape:vp_x="0 : 0.5 : 1" inkscape:vp_z="1 : 0.5 : 1" sodipodi:type="inkscape:persp3d" inkscape:vp_y="0 : 1000 : 0" inkscape:persp3d-origin="0.5 : 0.33333333 : 1">
		</inkscape:perspective>
	
		<inkscape:perspective  id="perspective4966" inkscape:vp_x="0 : 0.5 : 1" inkscape:vp_z="1 : 0.5 : 1" sodipodi:type="inkscape:persp3d" inkscape:vp_y="0 : 1000 : 0" inkscape:persp3d-origin="0.5 : 0.33333333 : 1">
		</inkscape:perspective>
	
		<inkscape:perspective  id="perspective5009" inkscape:vp_x="0 : 0.5 : 1" inkscape:vp_z="1 : 0.5 : 1" sodipodi:type="inkscape:persp3d" inkscape:vp_y="0 : 1000 : 0" inkscape:persp3d-origin="0.5 : 0.33333333 : 1">
		</inkscape:perspective>
	
		<inkscape:perspective  id="perspective5165" inkscape:vp_x="0 : 0.5 : 1" inkscape:vp_z="1 : 0.5 : 1" sodipodi:type="inkscape:persp3d" inkscape:vp_y="0 : 1000 : 0" inkscape:persp3d-origin="0.5 : 0.33333333 : 1">
		</inkscape:perspective>
	
		<inkscape:perspective  id="perspective2850" inkscape:vp_x="0 : 0.5 : 1" inkscape:vp_z="1 : 0.5 : 1" sodipodi:type="inkscape:persp3d" inkscape:vp_y="0 : 1000 : 0" inkscape:persp3d-origin="0.5 : 0.33333333 : 1">
		</inkscape:perspective>
</defs>
<sodipodi:namedview  id="base" borderopacity="1.0" showgrid="true" bordercolor="#666666" inkscape:zoom="3.8890872" inkscape:cx="38.180853" inkscape:cy="20.314835" pagecolor="#ffffff" inkscape:window-maximized="0" inkscape:window-y="24" inkscape:window-x="0" inkscape:window-height="688" inkscape:window-width="1280" inkscape:grid-bbox="true" inkscape:document-units="px" inkscape:current-layer="layer1" inkscape:pageshadow="2" inkscape:pageopacity="0.0">
	</sodipodi:namedview>
<polygon class="st0" points="-386.6,294.6 -398.4,289.3 -396.9,293.2 -433.1,293.2 -431.6,289.3 -443.4,294.6 -431.6,299.8 
	-433.1,295.9 -396.9,295.9 -398.4,299.8 "/>
<g>
	<path class="st1" d="M-405.7,264.9l-3.7,12.9l-0.4,1.7c0,0.2,0,0.3,0,0.4c0,0.2,0.1,0.4,0.2,0.5c0.1,0.1,0.2,0.2,0.4,0.2
		c0.2,0,0.4-0.1,0.6-0.3c0.5-0.4,1.1-1.1,2-2.3l0.6,0.4c-0.9,1.3-1.8,2.3-2.7,3c-0.9,0.7-1.8,1-2.6,1c-0.5,0-0.9-0.1-1.2-0.4
		c-0.3-0.3-0.4-0.7-0.4-1.2c0-0.6,0.1-1.4,0.4-2.5l0.4-1.4c-1.7,2.2-3.2,3.7-4.6,4.6c-1,0.6-2,0.9-3,0.9c-0.9,0-1.7-0.4-2.4-1.1
		s-1-1.8-1-3.2c0-2,0.6-4.1,1.8-6.4s2.7-4,4.6-5.4c1.4-1.1,2.8-1.6,4.1-1.6c0.8,0,1.4,0.2,1.9,0.6c0.5,0.4,0.9,1.1,1.2,2l0.7-2.2
		L-405.7,264.9z M-412.5,265.9c-0.8,0-1.7,0.4-2.6,1.2c-1.3,1.1-2.5,2.7-3.5,4.8c-1,2.1-1.5,4-1.5,5.7c0,0.8,0.2,1.5,0.6,2
		c0.4,0.5,0.9,0.8,1.5,0.8c1.4,0,2.9-1,4.5-3.1c2.2-2.7,3.3-5.5,3.3-8.3c0-1.1-0.2-1.8-0.6-2.3
		C-411.2,266.1-411.7,265.9-412.5,265.9z"/>
</g>
<g>
	<g>
		<rect x="-443.2" y="282.2" class="st1" width="1" height="24.1"/>
		<rect x="-443.7" y="281.7" class="st1" width="2" height="25.1"/>
	</g>
</g>
<rect x="-388.3" y="282" class="st1" width="2" height="25.1"/>
<polygon class="st2" points="-391.5,258.8 -391.5,251.8 -394.8,251.8 -394.8,258.8 -401.9,258.8 -401.9,262.1 -394.8,262.1 
	-394.8,269.1 -391.5,269.1 -391.5,262.1 -384.5,262.1 -384.5,258.8 "/>
</svg>
