/* XPM */
static char * Parameter_64_xpm[] = {
"64 64 16 1",
" 	c None",
".	c #000000",
"+	c #005FFF",
"@	c #0060FF",
"#	c #005EFF",
"$	c #000714",
"%	c #000B1E",
"&	c #000103",
"*	c #000918",
"=	c #000D23",
"-	c #00050D",
";	c #000001",
">	c #000917",
",	c #000D22",
"'	c #000102",
")	c #000101",
"                                                                ",
"                                                                ",
"                                                                ",
"                                                                ",
"                                                                ",
"                                                                ",
"                                                                ",
"                                                                ",
"                                                                ",
"                                                                ",
"                                                                ",
"                                                                ",
"                                                                ",
"                                                                ",
"                                                                ",
"                                 ...    ..                      ",
"                               ...........                      ",
"                             ..... ......                       ",
"                            ....    .....                       ",
"                           ....     .....                       ",
"                          ....      .....                       ",
"                          ....      ....                        ",
"                         ....       ....                        ",
"                         ....       ....                        ",
"                        ....       ....                         ",
"                        ....       ....                         ",
"                        ....      .....                         ",
"                        ...      ......                         ",
"                       ....      .....                          ",
"                       .....    ...... ..                       ",
"                        ....  ...........                       ",
"                        ........  ......                        ",
"   ...                  .......   .....                    ..   ",
"   ...                    ...     ...                     ...   ",
"   ...                                                    ...   ",
"   ...                                                    ...   ",
"   ...                                                    ...   ",
"   ...                                                    ...   ",
"   ...                                                    ...   ",
"   ...                                                    ...   ",
"   ...        ++                                @+        ...   ",
"   ...     #+++                                  +++      ...   ",
"   ...   ++@+++                                  +++@++   ...   ",
"   ... +#++++++                                  ++++++#+ ...   ",
"   ..$++++++++####################################++++++++%..   ",
"   &.*++++++++++++++++++++++++++++++++++++++++++++++++++++=.-   ",
"   ;.>++++++++####################################++++++++,.'   ",
"   ..) ++++++++                                  ++++++++ '..   ",
"   ...   +++++#                                  ++++++   ...   ",
"   ...     @#++                                  @+#+     ...   ",
"   ...       +@+                                +@+       ...   ",
"   ...                                                    ...   ",
"   ...                                                    ...   ",
"   ...                                                    ...   ",
"   ...                                                    ...   ",
"   ...                                                    ...   ",
"   ...                                                    ...   ",
"   ...                                                    ...   ",
"                                                          ...   ",
"                                                                ",
"                                                                ",
"                                                                ",
"                                                                ",
"                                                                "};
