/* XPM */
static char * Parameter_xpm[] = {
"16 16 12 1",
" 	c None",
".	c #000000",
"+	c #000308",
"@	c #0061FF",
"#	c #005EFF",
"$	c #000713",
"%	c #000712",
"&	c #001437",
"*	c #005FFF",
"=	c #00296D",
"-	c #000C1E",
";	c #005DFF",
"                ",
"                ",
"                ",
"                ",
"       ....     ",
"      .. .      ",
"      . ..      ",
"      ....      ",
"..    ....    ..",
"..            ..",
".+@#        #@$.",
"%&************=-",
"..;*        *;..",
"..            ..",
"..            ..",
"                "};
